<?xml version="1.0" encoding="UTF-8" standalone="no"?>
<svg
   xmlns:dc="http://purl.org/dc/elements/1.1/"
   xmlns:cc="http://creativecommons.org/ns#"
   xmlns:rdf="http://www.w3.org/1999/02/22-rdf-syntax-ns#"
   xmlns:svg="http://www.w3.org/2000/svg"
   xmlns="http://www.w3.org/2000/svg"
   xmlns:sodipodi="http://sodipodi.sourceforge.net/DTD/sodipodi-0.dtd"
   xmlns:inkscape="http://www.inkscape.org/namespaces/inkscape"
   height="800"
   width="1200"
   viewBox="-204.79995 -341.33325 1774.9329 2047.9995"
   version="1.1"
   id="svg6"
   sodipodi:docname="facebook-logo1.svg"
   inkscape:version="0.92.4 (5da689c313, 2019-01-14)">
  <metadata
     id="metadata12">
    <rdf:RDF>
      <cc:Work
         rdf:about="">
        <dc:format>image/svg+xml</dc:format>
        <dc:type
           rdf:resource="http://purl.org/dc/dcmitype/StillImage" />
        <dc:title></dc:title>
      </cc:Work>
    </rdf:RDF>
  </metadata>
  <defs
     id="defs10" />
  <sodipodi:namedview
     pagecolor="#ffffff"
     bordercolor="#666666"
     borderopacity="1"
     objecttolerance="10"
     gridtolerance="10"
     guidetolerance="10"
     inkscape:pageopacity="0"
     inkscape:pageshadow="2"
     inkscape:window-width="640"
     inkscape:window-height="480"
     id="namedview8"
     showgrid="false"
     inkscape:zoom="0.27416667"
     inkscape:cx="600"
     inkscape:cy="400"
     inkscape:window-x="28"
     inkscape:window-y="0"
     inkscape:window-maximized="0"
     inkscape:current-layer="svg6" />
  <path
     d="M1365.333 682.667C1365.333 305.64 1059.693 0 682.667 0 305.64 0 0 305.64 0 682.667c0 340.738 249.641 623.16 576 674.373V880H402.667V682.667H576v-150.4c0-171.094 101.917-265.6 257.853-265.6 74.69 0 152.814 13.333 152.814 13.333v168h-86.083c-84.804 0-111.25 52.623-111.25 106.61v128.057h189.333L948.4 880H789.333v477.04c326.359-51.213 576-333.635 576-674.373"
     fill="#ffffff"
     id="path2" />
  <path
     d="M948.4 880l30.267-197.333H789.333V554.609C789.333 500.623 815.78 448 900.584 448h86.083V280s-78.124-13.333-152.814-13.333c-155.936 0-257.853 94.506-257.853 265.6v150.4H402.667V880H576v477.04a687.805 687.805 0 00106.667 8.293c36.288 0 71.91-2.84 106.666-8.293V880H948.4"
     fill="#4560A6"
     id="path4" />
</svg>
