<!DOCTYPE svg PUBLIC "-//W3C//DTD SVG 1.1//EN" "http://www.w3.org/Graphics/SVG/1.1/DTD/svg11.dtd">
<svg xmlns="http://www.w3.org/2000/svg" width="100" height="23.468">
<path d="
M 32.869 9.479
c 0.647 0.198 1.381 -0.339 1.663 -1.213 0.282 -0.874 -0.028 -1.72 -0.646 -1.945 -0.647 -0.199 -1.382 0.338 -1.664 1.212 -0.282 0.874 -0.002 1.748 0.647 1.946 z
m -1.832 0.056
c 0.591 -0.17 0.845 -1.045 0.563 -1.946 -0.31 -0.902 -1.044 -1.465 -1.635 -1.268 -0.592 0.17 -0.845 1.045 -0.564 1.945 0.31 0.874 1.044 1.468 1.636 1.269 z
m -1.55 0.226
c -0.283 -0.846 -0.988 -1.382 -1.551 -1.213 -0.564 0.17 -0.818 0.987 -0.536 1.833 0.282 0.845 0.987 1.381 1.55 1.212 0.592 -0.17 0.818 -0.987 0.536 -1.832 z
m 2.508 -0.029
h -0.14
a 3.084 3.084 0 0 0 -2.453 3.242
c 0 1.663 1.38 0.959 1.38 0.959
a 2.061 2.061 0 0 11.072 -0.592
h 0.113
c 0.409 0.084 0.783 0.29 1.072 0.592 0 0 1.38 0.733 1.38 -0.93 0.029 -2.876 -2.424 -3.27 -2.424 -3.27 z
m 3.946 -1.127
c -0.563 -0.2 -1.268 0.338 -1.522 1.155 -0.253 0.818 0 1.635 0.564 1.833 0.563 0.197 1.268 -0.338 1.522 -1.156 0.254 -0.846 0 -1.663 -0.564 -1.832 z
m 8.26 11.81
l -0.087 -0.112 -2.337 2.283 0.056 0.056 0.592 0.62
c 0.394 0.395 1.24 0.2 1.86 -0.422 0.647 -0.62 0.846 -1.466 0.452 -1.86 z
m -4.962 -4.989
a 9.016 9.016 0 10 -7.272 3.693 8.884 8.884 0 0 04.905 -1.466
l 4.37 4.37 2.338 -2.284 z
m -7.3 1.184
c -5.777 0 -8.67 -6.984 -4.585 -11.068 4.084 -4.084 11.068 -1.192 11.068 4.584
a 6.485 6.485 0 0 1 -6.484 6.484 z
M 11.528 1.106
A 9.63 9.63 0 0 07.667 0.373
H 0
V 16.3
h 5.384
v -3.918
h 2.311
a 9.394 9.394 0 0 03.834 -0.734 5.66 5.66 0 0 02.537 -2.086
c 0.6 -0.951 0.904 -2.059 0.874 -3.183
a 5.923 5.923 0 0 0 -0.874 -3.183 5.979 5.979 0 0 0 -2.537 -2.09 z
M 8.964 7.76
a 2.316 2.316 0 0 1 -1.635 0.479
H 5.384
V 4.517
h 1.945
a 2.46 2.46 0 0 11.635 0.479
c 0.373 0.36 0.569 0.865 0.536 1.381
a 1.765 1.765 0 0 1 -0.536 1.382 z
M 58.41 0.373
V 16.3
h 13.25
v -4.029
H 63.68
v -2.117
h 6.737
V 6.292
h -6.737
v -1.86
h 11.783
l 0.028 0.113
V 16.3
h 5.384
V 4.545
h 4.651
V 0.373
H 58.408 z
m 40.677 8.203
a 5.24 5.24 0 0 0 -2.17 -1.438 21.82 21.82 0 0 0 -3.073 -0.789
c -0.688 -0.12 -1.366 -0.29 -2.03 -0.507 -0.423 -0.141 -0.62 -0.395 -0.62 -0.705 0 -0.677 0.676 -1.015 2.057 -1.015
a 9.743 9.743 0 0 14.427 1.184
l 1.607 -3.89
c -0.88 -0.47 -1.819 -0.822 -2.791 -1.045
A 13.142 13.142 0 0 093.31 0.005
a 10.17 10.17 0 0 0 -4.06 0.705 5.58 5.58 0 0 0 -2.508 1.945 4.686 4.686 0 0 0 -0.846 2.735
c -0.05 0.993 0.272 1.968 0.902 2.736
a 5.503 5.503 0 0 02.143 1.466 24.59 24.59 0 0 03.073 0.818
c 0.698 0.124 1.386 0.303 2.057 0.535 0.423 0.17 0.62 0.423 0.62 0.761
a 0.71 0.71 0 0 1 -0.479 0.647 4.21 4.21 0 0 1 -1.607 0.225 10.303 10.303 0 0 1 -2.706 -0.394 9.82 9.82 0 0 1 -2.537 -1.072
l -1.722 3.92
a 9.99 9.99 0 0 03.073 1.183
c 1.266 0.294 2.562 0.445 3.862 0.451
a 10.17 10.17 0 0 04.06 -0.705 5.58 5.58 0 0 02.508 -1.945
c 0.56 -0.801 0.856 -1.758 0.846 -2.735
a 3.668 3.668 0 0 0 -0.903 -2.705 z
M 21.254 4.319
c -0.69 0.28 -1.286 0.749 -1.72 1.353
V 4.065
h -3.382
v 12.263
h 3.552
v -5.807
a 3.41 3.41 0 0 1.875 -2.565 2.632 2.632 0 0 11.381 -0.733
c 0.347 -1.201 0.91 -2.328 1.662 -3.326
a 6.025 6.025 0 0 0 -2.368 0.423 z
M 53.25 1.106
a 9.49 9.49 0 0 0 -3.834 -0.733
h -7.695
v 6.089
c 0.43 1.164 0.65 2.395 0.646 3.636
a 10.278 10.278 0 0 1 -0.646 3.637
v 2.536
h 5.384
v -3.89
h 2.311
a 9.394 9.394 0 0 03.834 -0.732 5.52 5.52 0 0 03.44 -5.273 5.487 5.487 0 0 0 -0.903 -3.183 5.978 5.978 0 0 0 -2.537 -2.087 z
M 50.685 7.76
a 2.316 2.316 0 0 1 -1.635 0.479
h -1.945
V 4.517
h 1.945
a 2.46 2.46 0 0 11.635 0.479
c 0.373 0.36 0.569 0.864 0.536 1.38
a 1.765 1.765 0 0 1 -0.536 1.383 z
"/>
</svg>