<svg xmlns="http://www.w3.org/2000/svg" width="22.006" height="22.434">
<path d="
m 9.9359 8.4462
c 0.647 0.198 1.381 -0.339 1.663 -1.213
s -0.028 -1.72 -0.646 -1.945
c -0.647 -0.199 -1.382 0.338 -1.664 1.212
s -0.002 1.748 0.647 1.946
z 
m -1.832 0.056
c 0.591 -0.17 0.845 -1.045 0.563 -1.946 -0.31 -0.902 -1.044 -1.465 -1.635 -1.268 -0.592 0.17 -0.845 1.045 -0.564 1.945 0.31 0.874 1.044 1.468 1.636 1.269
z 
m -1.55 0.226
c -0.283 -0.846 -0.988 -1.382 -1.551 -1.213 -0.564 0.17 -0.818 0.987 -0.536 1.833 0.282 0.845 0.987 1.381 1.55 1.212 0.592 -0.17 0.818 -0.987 0.536 -1.832
z 
m 2.508 -0.029
h -0.14
c -1.515 0.31251 -2.5641 1.6991 -2.453 3.242 0 1.663 1.38 0.959 1.38 0.959 0.2891 -0.30139 0.66294 -0.50784 1.072 -0.592
h 0.113
c 0.409 0.084 0.783 0.29 1.072 0.592 0 0 1.38 0.733 1.38 -0.93 0.029 -2.876 -2.424 -3.27 -2.424 -3.27
z 
m 3.946 -1.127
c -0.563 -0.2 -1.268 0.338 -1.522 1.155 -0.253 0.818 0 1.635 0.564 1.833 0.563 0.197 1.268 -0.338 1.522 -1.156 0.254 -0.846 0 -1.663 -0.564 -1.832
z 
m 8.26 11.81 -0.087 -0.112 -2.337 2.283 0.056 0.056 0.592 0.62
c 0.394 0.395 1.24 0.2 1.86 -0.422 0.647 -0.62 0.846 -1.466 0.452 -1.86
z 
m -4.962 -4.989
c 5.6027 -7.6594 -2.9036 -17.654 -11.358 -13.36 -8.4548 4.2937 -5.4034 17.058 4.0865 17.053 1.7434 0.0032 3.4493 -0.50663 4.905 -1.466
l 4.37 4.37 2.338 -2.284
z 
m -7.3 1.184
c -5.777 0 -8.67 -6.984 -4.585 -11.068 4.084 -4.084 11.068 -1.192 11.068 4.584 -0.000552 3.5808 -2.9032 6.4834 -6.484 6.484
z 
"/>
</svg>
